<?xml version="1.0" encoding="iso-8859-1"?>
<!-- Generator: Adobe Illustrator 19.0.0, SVG Export Plug-In . SVG Version: 6.00 Build 0)  -->
<svg version="1.1" id="Capa_1" xmlns="http://www.w3.org/2000/svg" xmlns:xlink="http://www.w3.org/1999/xlink" x="0px" y="0px"
	 viewBox="0 0 512 512" style="enable-background:new 0 0 512 512;" xml:space="preserve">
<path style="fill:#CDD6E0;" d="M490.667,512H21.333C9.6,512,0,502.4,0,490.667v-230.4c0-11.733,9.6-21.333,21.333-21.333h469.333
	c11.733,0,21.333,9.6,21.333,21.333v230.4C512,502.4,502.4,512,490.667,512z"/>
<g>
	<rect x="26.667" y="265.6" style="fill:#F2F2F2;" width="67.2" height="46.933"/>
	<rect x="104.533" y="265.6" style="fill:#F2F2F2;" width="67.2" height="46.933"/>
	<rect x="183.467" y="265.6" style="fill:#F2F2F2;" width="67.2" height="46.933"/>
	<rect x="261.333" y="265.6" style="fill:#F2F2F2;" width="67.2" height="46.933"/>
	<rect x="339.2" y="265.6" style="fill:#F2F2F2;" width="67.2" height="46.933"/>
	<rect x="418.133" y="265.6" style="fill:#F2F2F2;" width="67.2" height="46.933"/>
	<rect x="26.667" y="323.2" style="fill:#F2F2F2;" width="67.2" height="46.933"/>
	<rect x="418.133" y="323.2" style="fill:#F2F2F2;" width="67.2" height="46.933"/>
	<rect x="26.667" y="380.8" style="fill:#F2F2F2;" width="67.2" height="46.933"/>
	<rect x="104.533" y="380.8" style="fill:#F2F2F2;" width="67.2" height="46.933"/>
	<rect x="183.467" y="380.8" style="fill:#F2F2F2;" width="67.2" height="46.933"/>
	<rect x="261.333" y="380.8" style="fill:#F2F2F2;" width="67.2" height="46.933"/>
	<rect x="339.2" y="380.8" style="fill:#F2F2F2;" width="67.2" height="46.933"/>
	<rect x="104.533" y="323.2" style="fill:#F2F2F2;" width="67.2" height="46.933"/>
	<rect x="183.467" y="323.2" style="fill:#F2F2F2;" width="67.2" height="46.933"/>
	<rect x="261.333" y="323.2" style="fill:#F2F2F2;" width="67.2" height="46.933"/>
	<rect x="339.2" y="323.2" style="fill:#F2F2F2;" width="67.2" height="46.933"/>
	<rect x="418.133" y="380.8" style="fill:#F2F2F2;" width="67.2" height="46.933"/>
	<rect x="26.667" y="438.4" style="fill:#F2F2F2;" width="67.2" height="46.933"/>
	<rect x="104.533" y="438.4" style="fill:#F2F2F2;" width="301.867" height="46.933"/>
	<rect x="418.133" y="438.4" style="fill:#F2F2F2;" width="67.2" height="46.933"/>
</g>
<path style="fill:#ACB3BA;" d="M454.4,238.933h-21.333c0-49.067-39.467-88.533-88.533-88.533h-73.6
	c-60.8,0-109.867-49.067-109.867-109.867V0H182.4v40.533c0,49.067,39.467,88.533,88.533,88.533h73.6
	C405.333,129.067,454.4,178.133,454.4,238.933z"/>
<g>
</g>
<g>
</g>
<g>
</g>
<g>
</g>
<g>
</g>
<g>
</g>
<g>
</g>
<g>
</g>
<g>
</g>
<g>
</g>
<g>
</g>
<g>
</g>
<g>
</g>
<g>
</g>
<g>
</g>
</svg>
